HIERARCHY
ROOT Hip
{
    OFFSET 0.0 0.0 0.0
    CHANNELS 6 Xposition Yposition Zposition Zrotation Xrotation Yrotation
    JOINT RightHip
    {
        OFFSET -126.00988230396769 0.0 0.0
        CHANNELS 3 Zrotation Xrotation Yrotation
        JOINT RightKnee
        {
            OFFSET 0.0 0.0 -438.48094024322006
            CHANNELS 3 Zrotation Xrotation Yrotation
            JOINT RightAnkle
            {
                OFFSET 0.0 0.0 -414.96805767346086
                CHANNELS 3 Zrotation Xrotation Yrotation
                End Site
                {
                    OFFSET 0.0 -165.98722306938436 0.0
                }
            }
        }
    }
    JOINT LeftHip
    {
        OFFSET 126.00988230396769 0.0 0.0
        CHANNELS 3 Zrotation Xrotation Yrotation
        JOINT LeftKnee
        {
            OFFSET 0.0 0.0 -438.48094024322006
            CHANNELS 3 Zrotation Xrotation Yrotation
            JOINT LeftAnkle
            {
                OFFSET 0.0 0.0 -414.96805767346086
                CHANNELS 3 Zrotation Xrotation Yrotation
                End Site
                {
                    OFFSET 0.0 -165.98722306938436 0.0
                }
            }
        }
    }
    JOINT Spine
    {
        OFFSET 0.0 0.0 235.6118506488968
        CHANNELS 3 Zrotation Xrotation Yrotation
        JOINT Thorax
        {
            OFFSET 0.0 0.0 250.3492684833863
            CHANNELS 3 Zrotation Xrotation Yrotation
            JOINT Neck
            {
                OFFSET 0.0 0.0 96.69944494068992
                CHANNELS 3 Zrotation Xrotation Yrotation
                End Site
                {
                    OFFSET 0.0 0.0 38.67977797627597
                }
            }
            JOINT LeftShoulder
            {
                OFFSET 139.58382899556432 0.0 0.0
                CHANNELS 3 Zrotation Xrotation Yrotation
                JOINT LeftElbow
                {
                    OFFSET 260.8054026632454 0.0 0.0
                    CHANNELS 3 Zrotation Xrotation Yrotation
                    JOINT LeftWrist
                    {
                        OFFSET 215.78538319892357 0.0 0.0
                        CHANNELS 3 Zrotation Xrotation Yrotation
                        End Site
                        {
                            OFFSET 86.31415327956944 0.0 0.0
                        }
                    }
                }
            }
            JOINT RightShoulder
            {
                OFFSET -139.58382899556432 0.0 0.0
                CHANNELS 3 Zrotation Xrotation Yrotation
                JOINT RightElbow
                {
                    OFFSET -260.8054026632454 0.0 0.0
                    CHANNELS 3 Zrotation Xrotation Yrotation
                    JOINT RightWrist
                    {
                        OFFSET -215.78538319892357 0.0 0.0
                        CHANNELS 3 Zrotation Xrotation Yrotation
                        End Site
                        {
                            OFFSET -86.31415327956944 0.0 0.0
                        }
                    }
                }
            }
        }
    }
}
MOTION
Frames: 10
Frame Time: 0.03333333333333333
0.0 0.0 -12.074235487052212 -87.328068678189 35.95980887539596 -108.17930373571106 8.334020396826817 -17.048227075279765 17.60455158087933 -3.51529780614282 21.26398667037128 9.415113810647782 3.1805546814635168e-15 0.0 0.0 5.206776828827763 -10.853967588167265 14.227319807282816 -6.38464421494415 28.482340484888724 21.13774170418086 0.0 0.0 0.0 -8.155320417485116 16.69666059402689 -14.86669682091849 0.5608658831445663 6.345466076701178e-15 -3.2116507715397743e-15 -38.18136910048902 -3.418571519666952 5.165347275087792 -0.012539603965530503 -2.3989885817463024 66.8102849934599 -103.3364501164039 3.5243716482113366e-15 1.343181609255449e-14 3.1805546814635168e-15 0.0 0.0 -16.268525765656825 -32.81592268082741 -46.418135376459624 55.008993569878484 -1.128428474722907e-14 5.875352504482202e-15 -1.3914926731402886e-15 0.0 0.0
0.0 0.0 -12.074235487052212 -87.35588202121254 37.35176005013291 -108.57471958923433 8.127317550272467 -16.390785139651733 18.207568019620282 -3.273063387195702 20.586110261273276 7.171038809614943 -3.1805546814635168e-15 0.0 0.0 5.18210598651981 -10.63018886153444 14.790438448970134 -6.00569522076855 27.471767373277373 19.438164485535683 0.0 0.0 7.95138670365879e-15 -8.640201946669055 17.34902016515328 -14.332606199770042 -1.3709660910634272 6.398705162470112e-15 -3.1042249681161667e-15 -36.39534369280482 -4.2493340748812365 5.638116438476636 -4.108130596435776 -2.3942952227063072 66.17577188198771 -100.9406201543776 3.066431896496895e-15 -2.5304412761269362e-15 -1.5902773407317584e-15 0.0 0.0 -16.769120375417078 -30.649313863049105 -49.97043041750478 52.44975299619395 -1.1412677414315971e-14 5.6218896774335645e-15 0.0 0.0 0.0
0.0 0.0 -12.074235487052212 -86.87478976515251 38.4979780054808 -108.72872685845066 8.275522490929545 -17.183581189596115 18.126515597204296 -3.2449495769056615 21.70389593677981 5.807800020449686 -3.1805546814635168e-15 0.0 0.0 4.918237463216051 -10.42313074443092 14.575339291729907 -5.291960617200882 25.700917700622973 18.788870699387967 0.0 0.0 -1.5902773407317584e-15 -8.809761854269558 18.204509878853386 -15.33240695772974 -0.5698900180788349 -1.5817560286564317e-17 3.1805153492108905e-15 -35.35940334941901 -4.961086971376183 4.704769231115591 -6.355871049395993 -3.4833543849011326 65.59202189147946 -100.55711356816587 2.0910456279983064e-14 7.437175672836125e-15 1.5902773407317584e-15 0.0 0.0 -16.284746283252 -30.77050535533927 -50.219557364794305 45.99918555916471 3.3700078837086088e-15 -8.34089153016497e-15 -6.3611093629270335e-15 3.1805546814635168e-15 -6.3611093629270335e-15
0.0 0.0 -12.074235487052212 -87.27628318952831 39.69846396176605 -108.45434015787156 8.195971364173394 -16.721316750130793 18.260436206652827 -3.1482478553085818 20.532499571791465 5.305784867225271 0.0 0.0 0.0 4.774926476456683 -9.934724366382063 14.297382945657732 -5.3749741207142145 24.682471595222285 18.54005959442414 -3.1805546814635168e-15 0.0 0.0 -9.413476485937574 19.00699981138131 -16.236200093437965 -0.6927952458925526 -1.9228813692867594e-17 3.180496554707057e-15 -35.01131538429711 -5.726215800746202 5.356770282981294 -9.331348074467755 -4.6127636144467985 67.4810434702588 -99.96273994023642 1.0768870717847744e-14 7.570086340777413e-15 1.5902773407317584e-15 -8.827812596100317e-32 -6.3611093629270335e-15 -12.143134012690739 -29.227739590404035 -48.161461115123565 39.95456176338736 1.195669949135089e-14 -4.3465143025188854e-15 -1.5902773407317584e-15 0.0 0.0
0.0 0.0 -12.074235487052212 -84.08302627395395 41.54476484567432 -111.8313705230913 9.161008944883353 -18.13365297463349 20.161949002157975 -2.6474043936019314 19.988442957344937 4.226301785663428 -3.1805546814635168e-15 0.0 0.0 5.662002805383573 -11.459196875320487 15.229148469682764 -4.839987752548331 22.93044645270578 17.352927906584107 -3.1805546814635168e-15 -4.4139062980501586e-32 1.5902773407317584e-15 -9.83806326090528 19.356689111953116 -15.359743548648481 0.7516369968826069 -6.381834491059688e-15 -3.138762325761288e-15 -31.299290980330337 -6.938197999213361 5.456438078429528 -10.761335237606101 -4.319700549693791 67.5214241712049 -96.98365987747287 2.0983312977866225e-14 6.913328172361818e-15 -1.5902773407317584e-15 0.0 0.0 -13.80671736561275 -31.920665837179325 -50.67338145948026 35.02910266218641 1.9143631659924604e-15 6.066211832421391e-15 1.5902773407317584e-15 0.0 0.0
0.0 0.0 -12.074235487052212 -81.87630504556262 44.554462448054 -113.53936512609438 7.935389755270872 -16.593299201594228 19.878284259293384 -1.9280664310678497 17.357967520418153 3.863244176176281 3.1805546814635168e-15 0.0 0.0 6.903196954492734 -14.533483424578904 15.473538951007855 -3.8433159939760286 20.28916097262132 13.15022107383835 3.1805546814635168e-15 0.0 0.0 -10.175326387125388 20.865851643934775 -15.972676858088489 2.423234087147647 6.359687125296717e-15 -1.345064885169518e-16 -31.282143855864053 -7.753152265135325 7.115033104332543 -11.414866046829099 -7.183907441630794 67.14836006575644 -99.36141574544045 3.0312694043911904e-15 -2.572458634416175e-15 -1.5902773407317584e-15 0.0 0.0 -5.288664444815245 -29.365253575462678 -45.229058764362065 30.28594529166368 -7.801935815182235e-15 -4.47852902078491e-15 0.0 0.0 0.0
0.0 0.0 -12.074235487052212 -78.9861501278629 47.31432078142352 -116.10798065860716 8.572384234658875 -17.737498092165445 20.24490638654546 -1.8629918899261373 16.956987368865644 3.429937678244513 -3.1805546814635168e-15 0.0 0.0 7.39899655290433 -15.436750853809754 15.4667388362958 -3.780565501240314 19.523018281288252 12.323976833299321 -3.1805546814635168e-15 0.0 0.0 -10.216035621639369 20.829697661625364 -15.848500809926918 3.5750662233385766 1.2666421766993512e-14 -1.9863511647112428e-15 -29.37697161052499 -9.420392764415958 7.009005775500405 -12.815227585876265 -7.310149198861759 68.52310482335362 -98.61752758362738 -1.3720774208496777e-14 -4.980671675781315e-15 3.1805546814635168e-15 0.0 0.0 -4.612647789518086 -29.188780224188758 -45.4848194174956 28.492259464651063 -9.296272666038667e-15 -1.0765587589827699e-14 6.3611093629270335e-15 0.0 0.0
0.0 0.0 -12.074235487052212 -77.68521127641458 48.79012298385878 -118.31506486999096 8.988349862916381 -18.628942760527792 21.833936463612382 -1.4327834549664957 17.570096443942262 2.459964998879955 0.0 0.0 0.0 7.558760220055352 -15.832563931710787 16.377100926092215 -3.5224420042779974 20.055353747229212 11.059722959018288 0.0 0.0 0.0 -10.205718030638907 20.914292266834483 -14.65278350361907 3.821360009520266 1.0604438941773493e-16 3.1787863516210883e-15 -27.831890106972377 -10.672165562499478 6.737772090540917 -15.188517612944365 -8.168210733135043 67.6806209128191 -97.04346048901878 -8.978978906495355e-15 -5.525961010968243e-16 1.5902773407317584e-15 0.0 0.0 -3.7515125920329173 -30.282409978902756 -45.2770490822285 26.19715140382443 -1.8586810448765077e-14 4.324799219124383e-15 0.0 0.0 0.0
0.0 0.0 -12.074235487052212 -72.91189933440059 49.11280628534066 -122.43987965369197 10.274603013051973 -20.779233023532353 22.464990549278724 -1.4019894018813244 16.89576613855962 2.411140074107771 0.0 0.0 0.0 8.787064659978242 -17.990327541467988 16.56202231923863 -3.8120260592198765 20.6214361885747 10.521829608215784 0.0 0.0 0.0 -9.973999105865403 20.220150121828954 -14.559667861492933 4.978114134078534 6.355107874025161e-15 -2.762539350332845e-16 -25.840877037711373 -13.155236534724583 6.414074068651508 -17.64698878619735 -10.147702850305441 66.90549115809986 -96.00192694530313 -1.3239964026731428e-14 -5.1982606905048095e-15 1.5902773407317584e-15 0.0 0.0 -3.9532109382115856 -32.767733719919796 -45.48368821766888 25.990636593591624 1.5257246492922813e-14 9.535519286915541e-15 -1.5902773407317584e-15 0.0 0.0
0.0 0.0 -12.074235487052212 -72.33329294958202 50.17290672891548 -123.55887422639513 10.463782531752914 -20.98734388498126 23.01723054881806 -1.274812907860859 16.609859229653605 2.3458613003691666 0.0 0.0 0.0 8.746275855139688 -17.79369457687324 16.732844355673535 -3.674515183594874 20.00383162531266 9.929557860926355 3.1805546814635168e-15 0.0 0.0 -10.04508019022948 20.21829379559145 -13.830427599515048 4.549376092479007 0.0 0.0 -24.14069208820064 -14.052563085205781 6.218261468436997 -17.82043887124423 -10.95687844434947 67.38026575030044 -96.31215691101387 4.738802775479084e-15 -4.243519834079923e-15 -2.3854160110976376e-15 0.0 0.0 -2.8344404439486595 -32.16567874418978 -45.117540837978524 27.101159205724414 -9.164900528238887e-15 -1.0877644963091803e-14 1.5902773407317584e-15 6.3611093629270335e-15 -8.827812596100317e-32
